PathFileType	4	(X/Y/Z)	/Users/visionmauri/Downloads/Videos/OAW08-top_Sports2D/OAW08-top_Sports2D_px_person00.trc
DataRate	CameraRate	NumFrames	NumMarkers	Units	OrigDataRate	OrigDataStartFrame	OrigNumFrames
30.0	30.0	6	22	m	30.0	1340	2144
Frame#	Time	Hip			RHip			RKnee			RAnkle			RBigToe			RSmallToe			RHeel			LHip			LKnee			LAnkle			LBigToe			LSmallToe			LHeel			Neck			Head			Nose			RShoulder			RElbow			RWrist			LShoulder			LElbow			LWrist			
		X1	Y1	Z1	X2	Y2	Z2	X3	Y3	Z3	X4	Y4	Z4	X5	Y5	Z5	X6	Y6	Z6	X7	Y7	Z7	X8	Y8	Z8	X9	Y9	Z9	X10	Y10	Z10	X11	Y11	Z11	X12	Y12	Z12	X13	Y13	Z13	X14	Y14	Z14	X15	Y15	Z15	X16	Y16	Z16	X17	Y17	Z17	X18	Y18	Z18	X19	Y19	Z19	X20	Y20	Z20	X21	Y21	Z21	X22	Y22	Z22
1340	44.68750972157412	509.4216414958152	727.7865401504143	0.0	532.7492500562066	729.3137327817401	0.0	531.2730111644827	812.369644929715	0.0	529.9336275270617	887.5034203374187	0.0	535.0631384505002	882.2278494101064	0.0	548.137960116016	889.5306161430851	0.0	526.3659507341298	904.489119508478	0.0	485.73607912483294	731.0030353238615	0.0	493.10714356906084	826.6044618537329	0.0	497.9566810911971	924.3911518406518	0.0	503.4538903027515	932.9979481583171	0.0	485.9154124721473	940.1780125796868	0.0	497.255762475228	945.4721954727511	0.0	517.429344388539	601.9762345761618	0.0	511.82396694782136	558.3849879071465	0.0	508.8876167304102	588.6021796694945	0.0	557.6273701555064	612.9797123661423	0.0	574.4506018343941	687.7951084863723	0.0	587.7661873998735	751.4230745069692	0.0	478.15487797094175	612.0060260428285	0.0	459.9516754994794	682.593801055345	0.0	465.6137738034449	735.9136835512417	0.0
1341	44.720858609426045	510.28246092128325	727.3791929139595	0.0	532.9968077785761	728.650780640637	0.0	531.2053170781833	812.3979589761924	0.0	529.369101474097	887.3995603538784	0.0	534.6971009871437	883.7432451957793	0.0	547.7763441674866	891.2020294457475	0.0	525.1398895041564	904.6741175164224	0.0	487.1196683248239	730.2340587396712	0.0	494.0517166950256	825.3919940604281	0.0	497.7234800886308	920.3345144234121	0.0	503.1071897664675	932.4547272224892	0.0	485.14885782649	938.2810754640348	0.0	496.96514580797793	942.4647924270686	0.0	519.7686994275708	601.9440064709453	0.0	517.4080571789829	558.2836028253951	0.0	516.5358748929691	587.4596421803204	0.0	558.6671700224241	613.0620674079487	0.0	574.8751271564443	686.7021238011507	0.0	587.8336838340734	750.2761845774573	0.0	479.9054196661814	611.3384470498198	0.0	460.8921692531372	681.4327628763099	0.0	466.614547716295	734.2158576818059	0.0
1342	44.75420749727796	511.48931358238116	727.2072183292813	0.0	533.5099272993053	727.6991015622903	0.0	531.6928057187805	812.5776235616038	0.0	529.1545842009428	888.4404350440873	0.0	534.4764192628488	886.4692147357254	0.0	548.0768624227151	894.3323924183254	0.0	524.3968729144917	906.5160707260858	0.0	488.76459608000636	729.0542508496377	0.0	494.6301961985365	823.3547185451806	0.0	497.33066969750604	914.9182332908669	0.0	502.3019317607244	932.6148480036721	0.0	484.09073792251496	936.3949830620091	0.0	496.65887427647556	937.85177754263	0.0	521.2626264590808	602.2319866929124	0.0	520.4767687128158	558.6364527851139	0.0	520.6811867196158	587.27279261489	0.0	559.0597394281035	613.1557646063786	0.0	575.1839352214355	685.137386678482	0.0	587.6689670985172	748.7258944686396	0.0	481.92437807159416	611.0956166487942	0.0	462.01987508356564	680.6143044418527	0.0	467.369136423001	733.1002928668325	0.0
1343	44.78755638512988	513.0198433642908	725.432692122205	0.0	534.5108886822034	725.4773068675374	0.0	532.7890373168551	812.0330209237792	0.0	529.179486414192	889.6909581393652	0.0	534.0857063919663	889.6451334612855	0.0	548.2269930761145	897.3483940829082	0.0	524.2235577194904	908.2019191511549	0.0	490.5647822483959	726.1441306142736	0.0	494.91266832428715	819.2618532729056	0.0	497.03433449639107	908.147216073488	0.0	501.3012335884836	932.5289263514254	0.0	482.7984042022438	934.476625302138	0.0	496.2149706017808	930.8992868764112	0.0	522.3303994445848	602.2214926817314	0.0	521.9973230341413	558.0868325670053	0.0	522.7185040136517	586.6991678274346	0.0	559.8370274941129	613.013294243474	0.0	575.9386490362396	683.8652502257294	0.0	587.4418210577192	746.890271460941	0.0	483.6038445237148	610.5149340026329	0.0	463.441665555302	679.2414815140961	0.0	467.91684270144816	731.9742540155098	0.0
1344	44.820905272981804	514.4797679597137	721.8337768818055	0.0	535.8079135355597	722.6750704972069	0.0	534.0685685223978	810.7618999637237	0.0	529.2190402716623	890.4657047569056	0.0	533.559093507233	892.2218866434159	0.0	547.7802431878006	899.4799529581729	0.0	524.2694130535303	909.3491344056939	0.0	492.2625765134377	722.3219152023787	0.0	495.26591579859496	813.8744130301778	0.0	496.9203071270309	899.2025854201214	0.0	500.55435535277326	930.9623879760051	0.0	481.99495691407583	931.6073862603596	0.0	495.7517218070634	921.3290017257067	0.0	523.4655938611118	600.4852241835608	0.0	524.1105366243197	555.369301265412	0.0	526.2175739041573	585.227354585693	0.0	561.3013876346538	612.3103499808973	0.0	577.0308758944452	683.020423914785	0.0	587.2722809903066	744.7243197059453	0.0	484.6530751124474	608.876948496025	0.0	464.9150079386516	676.7678339433818	0.0	467.9332174448492	730.511539056275	0.0
1345	44.854254160833726	515.6718348240157	718.1347168397226	0.0	537.1015859353203	720.6370366550391	0.0	535.0093632575465	809.4309312351645	0.0	529.2106266639503	890.3959781509222	0.0	533.1415273839443	893.9005640957316	0.0	547.1273478776684	901.0117424563094	0.0	524.5883230063574	910.162511863471	0.0	493.5948893388185	719.3731879997292	0.0	495.9623248807165	808.7365896074917	0.0	496.9270282704183	887.674087645735	0.0	500.3873647836008	927.2260921039644	0.0	482.16862207390625	926.6503799017845	0.0	495.7952699724395	909.4993892252243	0.0	524.7435850806244	597.087008415156	0.0	526.2738572166027	551.3698000796022	0.0	530.8146197382557	583.9529996286761	0.0	563.0014747478533	611.0986149930717	0.0	578.037662519615	682.0682737278947	0.0	587.1176800937558	742.3540232679812	0.0	485.51344227160035	606.5617660432313	0.0	466.22490185399397	673.7619434600698	0.0	467.1295257453474	728.7098218478529	0.0
